<svg width="285" height="110" viewBox="0 0 285 110" fill="none" xmlns="http://www.w3.org/2000/svg">
<path d="M52.8527 53.6648C52.3882 52.5959 52.1058 51.5163 52.0076 50.4331C51.9679 44.8886 56.7003 39.496 65.4619 35.1022C74.2234 30.7083 86.5178 27.562 100.414 26.1572C114.311 24.7525 129.023 25.169 142.24 27.3412C155.457 29.5134 166.43 33.3184 173.437 38.1586C177.621 37.5411 182.041 37.1963 186.518 37.1383C191.935 37.1378 197.3 37.5492 202.305 38.349C207.31 39.1488 211.859 40.3214 215.69 41.7997C219.521 43.278 222.56 45.0332 224.633 46.9649C226.707 48.8966 227.774 50.967 227.774 53.0579C227.774 53.149 227.646 53.2248 227.636 53.3121C238.167 53.6075 247.987 55.4717 255.021 58.5105C262.055 61.5494 265.752 65.5248 265.331 69.5966C264.91 73.6684 260.404 77.5174 252.764 80.3302C245.125 83.143 234.951 84.6991 224.393 84.6697H60.6067C49.7457 84.6697 39.3295 83.0044 31.6496 80.0402C23.9697 77.0761 19.6552 73.0558 19.6552 68.8638C19.7386 65.2349 23.1004 61.731 29.1608 58.9564C35.2211 56.1817 43.6001 54.3103 52.8527 53.6648Z" fill="#C3E2FC"/>
</svg>
