<svg width="439" height="176" viewBox="0 0 439 176" fill="none" xmlns="http://www.w3.org/2000/svg">
<path d="M428.802 191.933C418.741 173.925 402.103 158.221 380.048 145.448C351.802 128.068 314.27 116.132 272.095 110.897C250.813 58.549 191.226 20.8581 106.488 6.82872C14.3986 -8.66642 -92.3943 6.40993 -159.333 44.3102C-218.147 77.6038 -237.493 123.461 -214.664 172.25C-292.051 182.51 -330.357 217.479 -334.613 250.773C-335 253.076 -335 255.17 -335 257.264C-335 296.63 -287.408 340.812 -181.388 345H220.246C275.19 345 327.813 333.902 368.053 314.01C431.123 284.066 454.339 237.372 428.802 191.933Z" fill="#21C58E"/>
</svg>
