<svg xmlns="http://www.w3.org/2000/svg" width="454" height="432" fill="none"><path fill="#E0E0E0" d="m298.286 430.405 147.669-85.052c2.972-1.713 2.972-4.487 0-6.2L160.642 174.446a11.868 11.868 0 0 0-10.744 0L2.229 259.488c-2.972 1.713-2.972 4.496 0 6.2l285.313 164.707a11.88 11.88 0 0 0 10.744.01Z"/><path fill="#EBEBEB" d="M69.087 4.712 60.464 9.7c0-.388.066-.766.066-1.145V6.056c0-4.449-3.124-6.257-6.976-4.032a13.338 13.338 0 0 0-4.156 4.004c-.634-5.595-5.026-7.687-10.356-4.6C33.278 4.75 28.63 12.852 28.63 19.507v3.786a9.95 9.95 0 0 0 .88 4.335l-7.166 4.137a8.566 8.566 0 0 0-3.871 6.71c0 2.471 1.732 3.465 3.871 2.235l46.743-27.054a8.566 8.566 0 0 0 3.872-6.711c0-2.461-1.733-3.465-3.872-2.234ZM93.594 31.747l-6.768 3.91c0-.304.057-.607.057-.947v-1.913c0-3.493-2.452-4.903-5.48-3.161-1.3.8-2.411 1.872-3.257 3.142-.492-4.392-3.938-6.03-8.122-3.616-4.515 2.613-8.188 8.965-8.188 14.2v2.934a7.695 7.695 0 0 0 .7 3.398l-5.622 3.247a6.728 6.728 0 0 0-3.039 5.263c0 1.893 1.363 2.717 3.039 1.751l36.68-21.194a6.72 6.72 0 0 0 3.03-5.263c0-1.931-1.345-2.717-3.03-1.751Z"/><path fill="#21C58E" d="m418.2 313.15-6.313-3.644s-3.787-15.619-2.263-29.657c2.111-19.746 15.146-27.177 20.049-25.482 4.903 1.694 6.38 7.449-1.808 19.253-4.818 6.901-10.744 21.356-9.665 39.53Z"/><path fill="#fff" d="m418.2 313.15-6.313-3.644s-3.787-15.619-2.263-29.657c2.111-19.746 15.146-27.177 20.049-25.482 4.903 1.694 6.38 7.449-1.808 19.253-4.818 6.901-10.744 21.356-9.665 39.53Z" opacity=".65"/><path fill="#fff" d="M415.588 305.483h.057a.442.442 0 0 0 .278-.185.438.438 0 0 0 .072-.326c-3.465-18.213 2.897-38.688 10.782-47.198a.444.444 0 0 0 0-.624.436.436 0 0 0-.616 0c-8.027 8.67-14.511 29.477-10.999 47.954a.45.45 0 0 0 .144.267.452.452 0 0 0 .282.112Z"/><path fill="#21C58E" d="M435.637 325.465c.994.502 3.654-1.76 4.392-2.319a9.364 9.364 0 0 0 2.897-3.682 8.662 8.662 0 0 0 .501-5.244 19.588 19.588 0 0 0-.795-2.736l-.946-2.65a6.989 6.989 0 0 1-.531-2.689c.142-1.846 1.714-3.218 3.134-4.401 1.58-1.316 3.209-3.02 3.086-5.226a7.796 7.796 0 0 0-2.187-4.534c-1.117-1.287-2.433-2.414-3.465-3.786a5.466 5.466 0 0 1-1.287-3.379 5.767 5.767 0 0 1 .644-2.187 29.668 29.668 0 0 0 2.13-4.421c.463-1.581.293-3.502-.947-4.543a5.075 5.075 0 0 0-3.853-.758 8.605 8.605 0 0 0-3.474 1.43c-3.417 2.13-5.215 6.389-8.86 8.074a37.813 37.813 0 0 1-4.458 1.335 5.585 5.585 0 0 0-3.55 2.745c-1.231 2.84 1.477 6.039.663 8.983-.72 2.613-3.171 3.72-4.449 6.106a5.48 5.48 0 0 0-.493 3.389c.225 1.958.802 3.86 1.704 5.613a51.62 51.62 0 0 0 3.38 5.178l16.764 9.702Z"/><path fill="#fff" d="M435.637 325.465c.994.502 3.654-1.76 4.392-2.319a9.364 9.364 0 0 0 2.897-3.682 8.662 8.662 0 0 0 .501-5.244 19.588 19.588 0 0 0-.795-2.736l-.946-2.65a6.989 6.989 0 0 1-.531-2.689c.142-1.846 1.714-3.218 3.134-4.401 1.58-1.316 3.209-3.02 3.086-5.226a7.796 7.796 0 0 0-2.187-4.534c-1.117-1.287-2.433-2.414-3.465-3.786a5.466 5.466 0 0 1-1.287-3.379 5.767 5.767 0 0 1 .644-2.187 29.668 29.668 0 0 0 2.13-4.421c.463-1.581.293-3.502-.947-4.543a5.075 5.075 0 0 0-3.853-.758 8.605 8.605 0 0 0-3.474 1.43c-3.417 2.13-5.215 6.389-8.86 8.074a37.813 37.813 0 0 1-4.458 1.335 5.585 5.585 0 0 0-3.55 2.745c-1.231 2.84 1.477 6.039.663 8.983-.72 2.613-3.171 3.72-4.449 6.106a5.48 5.48 0 0 0-.493 3.389c.225 1.958.802 3.86 1.704 5.613a51.62 51.62 0 0 0 3.38 5.178l16.764 9.702Z" opacity=".3"/><path fill="#fff" d="M425.972 320.429a.428.428 0 0 0 .301-.157.435.435 0 0 0 .097-.325c-1.6-17.323 5.613-36.917 11.283-42.767a.448.448 0 0 0 0-.625.433.433 0 0 0-.615 0c-5.784 5.982-13.148 25.889-11.53 43.458a.466.466 0 0 0 .041.168.45.45 0 0 0 .252.226.432.432 0 0 0 .171.022Z"/><path fill="#fff" d="M427.695 299.065a.326.326 0 0 0 .132 0 58.083 58.083 0 0 1 12.495-2.726.457.457 0 0 0 .398-.483.43.43 0 0 0-.311-.377.433.433 0 0 0-.172-.011 58.808 58.808 0 0 0-12.703 2.764.417.417 0 0 0-.247.225.411.411 0 0 0-.038.166.438.438 0 0 0 .446.442Z"/><path fill="#21C58E" d="m44.911 234.99 6.314-3.645s3.786-15.609 2.262-29.656c-2.11-19.746-15.145-27.177-20.048-25.473-4.904 1.704-6.38 7.45 1.798 19.206 4.828 6.939 10.753 21.403 9.674 39.568Z"/><path fill="#fff" d="m44.911 234.99 6.314-3.645s3.786-15.609 2.262-29.656c-2.11-19.746-15.145-27.177-20.048-25.473-4.904 1.704-6.38 7.45 1.798 19.206 4.828 6.939 10.753 21.403 9.674 39.568Z" opacity=".65"/><path fill="#fff" d="M47.524 227.322h-.057a.435.435 0 0 1-.35-.511c4.269-18.6-1.713-37.182-10.782-47.197a.44.44 0 0 1 .644-.596c8.765 9.049 15.4 29.922 11 47.954a.454.454 0 0 1-.455.35Z"/><path fill="#21C58E" d="M28.071 244.692c-.994.502-3.644-1.77-4.382-2.319a9.267 9.267 0 0 1-2.897-3.682 8.661 8.661 0 0 1-.511-5.244 21.06 21.06 0 0 1 .795-2.736l.947-2.65a6.63 6.63 0 0 0 .53-2.689c-.142-1.845-1.704-3.218-3.134-4.401-1.58-1.316-3.199-3.02-3.085-5.235a7.819 7.819 0 0 1 2.186-4.534c1.127-1.278 2.442-2.404 3.465-3.786a5.408 5.408 0 0 0 1.287-3.38 5.757 5.757 0 0 0-.634-2.186 30.342 30.342 0 0 1-2.14-4.43c-.454-1.572-.283-3.493.947-4.535a5.073 5.073 0 0 1 3.862-.757 8.828 8.828 0 0 1 3.474 1.42c3.418 2.13 5.207 6.389 8.86 8.084 1.454.537 2.94.983 4.45 1.335a5.527 5.527 0 0 1 3.596 2.726c1.231 2.84-1.476 6.048-.662 8.992.72 2.613 3.162 3.721 4.449 6.106a5.482 5.482 0 0 1 .483 3.389 16.035 16.035 0 0 1-1.704 5.604 49.864 49.864 0 0 1-3.37 5.187l-16.812 9.721Z"/><path fill="#fff" d="M28.071 244.692c-.994.502-3.644-1.77-4.382-2.319a9.267 9.267 0 0 1-2.897-3.682 8.661 8.661 0 0 1-.511-5.244 21.06 21.06 0 0 1 .795-2.736l.947-2.65a6.63 6.63 0 0 0 .53-2.689c-.142-1.845-1.704-3.218-3.134-4.401-1.58-1.316-3.199-3.02-3.085-5.235a7.819 7.819 0 0 1 2.186-4.534c1.127-1.278 2.442-2.404 3.465-3.786a5.408 5.408 0 0 0 1.287-3.38 5.757 5.757 0 0 0-.634-2.186 30.342 30.342 0 0 1-2.14-4.43c-.454-1.572-.283-3.493.947-4.535a5.073 5.073 0 0 1 3.862-.757 8.828 8.828 0 0 1 3.474 1.42c3.418 2.13 5.207 6.389 8.86 8.084 1.454.537 2.94.983 4.45 1.335a5.527 5.527 0 0 1 3.596 2.726c1.231 2.84-1.476 6.048-.662 8.992.72 2.613 3.162 3.721 4.449 6.106a5.482 5.482 0 0 1 .483 3.389 16.035 16.035 0 0 1-1.704 5.604 49.864 49.864 0 0 1-3.37 5.187l-16.812 9.721Z" opacity=".3"/><path fill="#fff" d="M37.774 239.657a.456.456 0 0 1-.407-.483c1.6-17.323-5.613-36.917-11.283-42.767a.446.446 0 0 1 .334-.715.447.447 0 0 1 .3.099c5.783 5.992 13.148 25.899 11.52 43.468a.437.437 0 0 1-.464.398Z"/><path fill="#fff" d="M36.051 218.292a.284.284 0 0 1-.123 0 58.136 58.136 0 0 0-12.495-2.66.44.44 0 0 1-.301-.157.436.436 0 0 1-.097-.326.432.432 0 0 1 .152-.3.435.435 0 0 1 .322-.097 59.86 59.86 0 0 1 12.712 2.716.446.446 0 0 1 .266.568.446.446 0 0 1-.436.256Z"/><path fill="#21C58E" d="M405.762 160.436a15.203 15.203 0 0 0-3.985 1.401c-3.474 1.789-5.301 9.333-10.545 7.024-1.893-.833-2.632-3.72-4.6-4.733-5.746-2.935-12.306 1.609-18.383.946a22.316 22.316 0 0 1-4.837-.776c-4.194-1.401-5.68-5.926-8.179-8.992-3.881-4.658-9.712-3.474-14.663-6.239-6.626-3.71-5.244-11.463-2.451-17.171 1.836-3.786 4.439-6.626 6.834-10.005 1.713-2.442 2.508-4.998 1.609-7.904-.795-2.594-3.209-3.862-4.884-5.907-3.38-4.118-4.014-8.889-1.534-13.66 2.187-4.202 6.626-6.417 9.286-10.213 3.351-4.79.833-8.889 0-13.792a17.37 17.37 0 0 1 9.126-17.919c4.382-2.3 7.572-3.588 7.572-9.097.076-5.055-2.196-10.412.663-15.088 1.893-3.115 6.115-3.626 7.658-6.854 1.211-2.565 1.458-5.386 3.067-7.819a6.29 6.29 0 0 1 5.187-2.972c3.436-.19 5.68.767 8.122-2.272 1.789-2.196 2.84-4.96 5.755-5.888 7.895-2.451 11.795 7.015 13.574 12.864 1.24 4.07 3.578 4.677 7.119 6.91a15.625 15.625 0 0 1 7.572 10.63c.796 4.138-2.044 6.77-2.101 10.537-.104 4.534 6.352 6.389 9.684 8.907 3.871 2.934 7.629 6.891 8.046 11.974.35 4.222-2.442 5.879-4.43 9.012-2.783 4.402-1.382 7.573 2.66 10.299 5.509 3.701 13.829 10.195 14.378 17.502.691 9.211-18.184 13.518-10.412 22.387 5.509 6.314 14.104 18.932 2.527 24.441-3.483 1.666-9.059.161-11.217 4.118-1.354 2.48-.199 5.348-2.045 7.904-3.426 4.733-7.979 4.061-12.854 2.329-4.468-1.581-8.917-2.764-13.319-1.884Z"/><path fill="#fff" d="M405.762 160.436a15.203 15.203 0 0 0-3.985 1.401c-3.474 1.789-5.301 9.333-10.545 7.024-1.893-.833-2.632-3.72-4.6-4.733-5.746-2.935-12.306 1.609-18.383.946a22.316 22.316 0 0 1-4.837-.776c-4.194-1.401-5.68-5.926-8.179-8.992-3.881-4.658-9.712-3.474-14.663-6.239-6.626-3.71-5.244-11.463-2.451-17.171 1.836-3.786 4.439-6.626 6.834-10.005 1.713-2.442 2.508-4.998 1.609-7.904-.795-2.594-3.209-3.862-4.884-5.907-3.38-4.118-4.014-8.889-1.534-13.66 2.187-4.202 6.626-6.417 9.286-10.213 3.351-4.79.833-8.889 0-13.792a17.37 17.37 0 0 1 9.126-17.919c4.382-2.3 7.572-3.588 7.572-9.097.076-5.055-2.196-10.412.663-15.088 1.893-3.115 6.115-3.626 7.658-6.854 1.211-2.565 1.458-5.386 3.067-7.819a6.29 6.29 0 0 1 5.187-2.972c3.436-.19 5.68.767 8.122-2.272 1.789-2.196 2.84-4.96 5.755-5.888 7.895-2.451 11.795 7.015 13.574 12.864 1.24 4.07 3.578 4.677 7.119 6.91a15.625 15.625 0 0 1 7.572 10.63c.796 4.138-2.044 6.77-2.101 10.537-.104 4.534 6.352 6.389 9.684 8.907 3.871 2.934 7.629 6.891 8.046 11.974.35 4.222-2.442 5.879-4.43 9.012-2.783 4.402-1.382 7.573 2.66 10.299 5.509 3.701 13.829 10.195 14.378 17.502.691 9.211-18.184 13.518-10.412 22.387 5.509 6.314 14.104 18.932 2.527 24.441-3.483 1.666-9.059.161-11.217 4.118-1.354 2.48-.199 5.348-2.045 7.904-3.426 4.733-7.979 4.061-12.854 2.329-4.468-1.581-8.917-2.764-13.319-1.884Z" opacity=".1"/><path fill="#000" d="M335.856 142.271a10.228 10.228 0 0 0 7.999 4.79c3.73.388 7.26-1.023 11.028-.36 6.9 1.221 9.466 8.434 16.594 8.605 3.786.085 5.045-2.178 8.225-3.314 2.499-.899 5.387-.473 7.914 0 5.528 1.117 8.519 1.269 12.836-2.338 1.6-1.344 2.773-2.461 4.865-3.057 3.588-1.022 6.759 1.202 10.413.502 6.919-1.269 1.088-10.905 5.765-14.521 3.19-2.442 7.724-2.405 9.21-6.759 2.622-7.573-9.296-13.716-2.953-21.667 2.148-2.698 5.594-4.733 6.919-7.99 1.486-3.73-2.177-6.73-4.515-9.229-3.446-3.673-6.626-5.48-6.38-10.772a21.353 21.353 0 0 1 3.01-10.347c2.253-3.71 5.093-6.275 4.212-10.847a12.29 12.29 0 0 0-2.518-4.998 37.824 37.824 0 0 1 3.957 2.385c3.872 2.934 7.63 6.891 8.046 11.974.351 4.222-2.442 5.879-4.43 9.012-2.783 4.402-1.382 7.573 2.66 10.299 5.509 3.701 13.83 10.195 14.379 17.502.691 9.211-18.184 13.518-10.413 22.387 5.51 6.314 14.105 18.932 2.528 24.441-3.484 1.666-9.059.161-11.217 4.118-1.354 2.48-.199 5.348-2.045 7.904-3.427 4.733-7.98 4.061-12.855 2.329-4.43-1.581-8.879-2.764-13.318-1.893-1.387.279-2.729.75-3.985 1.401-3.474 1.789-5.301 9.333-10.546 7.023-1.893-.833-2.631-3.72-4.6-4.733-5.746-2.934-12.306 1.61-18.383.947a22.378 22.378 0 0 1-4.837-.776c-4.193-1.401-5.679-5.926-8.178-8.993-3.882-4.657-9.713-3.474-14.663-6.238a8.771 8.771 0 0 1-4.724-6.787Z" opacity=".2"/><path fill="#37474F" d="m420.69 81.3-23.902 47.387v-21.771l-2.432-56.692-3.531 56.663v14.672l-26.268-45.928L390.825 132v169.583a1.482 1.482 0 0 0 .871 1.221 4.674 4.674 0 0 0 4.222 0 1.498 1.498 0 0 0 .87-1.221V140.775l23.902-59.474ZM239.758 5.365a2.973 2.973 0 0 0-2.707 0 .947.947 0 0 0-.568.786v208.544a.944.944 0 0 0 .568.786 3.038 3.038 0 0 0 2.707 0 .945.945 0 0 0 .558-.786V6.151a.946.946 0 0 0-.558-.786Z"/><path fill="#21C58E" d="M231.948 48.331c0-6.01-8.992-15.013-8.992-15.013h-7.137s-8.993 9.002-8.993 15.013c0 1.893 1.23 3.71 3.682 5.121 4.903 2.84 12.855 2.84 17.758 0 2.452-1.41 3.682-3.266 3.682-5.121Z"/><path fill="#fff" d="M231.948 48.331c0-6.01-8.992-15.013-8.992-15.013h-7.137s-8.993 9.002-8.993 15.013c0 1.893 1.23 3.71 3.682 5.121 4.903 2.84 12.855 2.84 17.758 0 2.452-1.41 3.682-3.266 3.682-5.121Z" opacity=".3"/><path fill="#21C58E" d="M216.311 32.93a6.834 6.834 0 0 1 6.153 0c1.694.947 1.694 2.575 0 3.56a6.835 6.835 0 0 1-6.153 0c-1.695-.985-1.695-2.576 0-3.56Z"/><path fill="#fff" d="M216.311 32.93a6.834 6.834 0 0 1 6.153 0c1.694.947 1.694 2.575 0 3.56a6.835 6.835 0 0 1-6.153 0c-1.695-.985-1.695-2.576 0-3.56Z" opacity=".2"/><path fill="#000" d="M216.311 32.93a6.834 6.834 0 0 1 6.153 0c1.694.947 1.694 2.575 0 3.56a6.835 6.835 0 0 1-6.153 0c-1.695-.985-1.695-2.576 0-3.56Z" opacity=".2"/><path fill="#37474F" d="M237.609 12.237a.51.51 0 0 0-.596 0l-15.477 8.889a6.53 6.53 0 0 0-3.237 5.623v7.97a.56.56 0 0 0 .331.454 1.705 1.705 0 0 0 1.571 0 .554.554 0 0 0 .332-.454v-7.98a4.295 4.295 0 0 1 2.12-3.682l15.505-8.926a.52.52 0 0 0 .275-.521 1.763 1.763 0 0 0-.824-1.373Z"/><path fill="#455A64" d="M240.316 6.132c0 .605-.861 1.088-1.893 1.088s-1.893-.483-1.893-1.088c0-.606.861-1.089 1.893-1.089s1.893.492 1.893 1.089Z"/><path fill="#000" d="M90.348 269.985c20.238 8.236 28.341 28.606 53.558 27.272 8.794 0 21.346-5.519 14.388-14.474-13.442-13.072-33.935-11.359-49.488-21.696-5.623-3.483-11.018-9.153-16.906-12.135-6.352-2.887-13.413-4.865-20.304-2.622a5.68 5.68 0 0 0-4.525 5.803c0 9.021 16.13 14.435 23.277 17.852Z" opacity=".15"/><path fill="#263238" d="M85.066 118.862c.388.17 4.297-.739 7.98-2.168v-13.906a7.789 7.789 0 0 0-6.285 5.936c-2.642 9.399-1.695 10.138-1.695 10.138Z"/><path fill="#21C58E" d="M113.852 96.304c3.464-.066 7.516 1.657 8.727 4.345.208.464 1.666 4.004 1.666 4.004 1.893 9.4 5.462 33.604 2.991 36.605-3.701 4.496-21.932 13.3-29.912 13.044-6.626-.199-12.95-6.2-13.867-8.008-3.01-5.935 4.884-39.028 6.976-42.341 3.389-5.386 19.045-7.582 23.419-7.649Z"/><path fill="#000" d="M127.236 141.258c-3.701 4.496-21.932 13.3-29.912 13.044a14.296 14.296 0 0 1-5.187-1.249 3.267 3.267 0 0 0 4.647-2.433c.606-2.433 1.619-21.772 1.619-38.403l25.842-7.573c1.941 9.409 5.462 33.613 2.991 36.614Z" opacity=".18"/><path fill="#000" d="M89.6 105.723a9.182 9.182 0 0 1 .823-2.083c3.39-5.376 19.008-7.572 23.419-7.648 3.465-.057 7.516 1.666 8.728 4.354.198.445 1.666 4.004 1.666 4.004-6.92 3.673-24.224 7.403-26.117 6.74-2.215-.814-8.52-5.367-8.52-5.367Z" opacity=".5"/><path fill="#21C58E" d="M84.867 131.3c.17-.076 2.64-1.799 2.925-1.893.502-.237 7.468 4.837 8.103 5.679.445.587-.767 12.618-1.06 13.253-.114.227-2.84 1.713-2.925 1.893-.303.615-7.668-4.544-8.103-5.756-.436-1.211.331-12.845 1.06-13.176Z"/><path fill="#000" d="M84.867 131.3c.17-.076 2.64-1.799 2.925-1.893.502-.237 7.468 4.837 8.103 5.679.445.587-.767 12.618-1.06 13.253-.114.227-2.84 1.713-2.925 1.893-.303.615-7.668-4.544-8.103-5.756-.436-1.211.331-12.845 1.06-13.176Z" opacity=".18"/><path fill="#21C58E" d="M92.98 136.979c.444.587-.767 12.619-1.07 13.253-.303.634-7.668-4.544-8.103-5.756-.436-1.211.331-12.845 1.06-13.176.502-.227 7.478 4.837 8.112 5.679Z"/><path fill="#000" d="M87.782 129.369c-.274.132-2.745 1.893-2.906 1.893.492-.227 7.469 4.837 8.103 5.68l2.916-1.894c-.616-.842-7.602-5.916-8.113-5.679Z" opacity=".4"/><path fill="#000" d="M92.98 136.979c.444.587-.767 12.619-1.07 13.253-.303.634-7.668-4.544-8.103-5.756-.436-1.211.331-12.845 1.06-13.176.502-.227 7.478 4.837 8.112 5.679Z" opacity=".3"/><path fill="#21C58E" d="M95.895 135.048c-.521-.369-2.14.426-2.84.947-.7.521-1.553 3.304-3.332 3.682-1.78.379-4.203-2.054-4.676-3.578-.474-1.524-.947-4.733-.095-5.784a2.907 2.907 0 0 1 3.644-.946c1.231.776 7.194 4.288 7.299 5.679Z"/><path fill="#000" d="M95.895 135.048c-.521-.369-2.14.426-2.84.947-.7.521-1.553 3.304-3.332 3.682-1.78.379-4.203-2.054-4.676-3.578-.474-1.524-.947-4.733-.095-5.784a2.907 2.907 0 0 1 3.644-.946c1.231.776 7.194 4.288 7.299 5.679Z" opacity=".1"/><path fill="#37474F" d="M88.123 136.421a1.325 1.325 0 0 1 .578 1.249.533.533 0 0 1-.283.463.524.524 0 0 1-.541-.027 1.31 1.31 0 0 1-.577-1.24c.075-.502.407-.672.823-.445ZM98.403 111.914s-2.442-1.676-5.396-3.38c-2.953-1.704-4.6-2.29-5.679 1.136a77.004 77.004 0 0 0-2.29 9.192c-.56-.275-.502-1.288-.105-5.68.568-6.361-.237-9.201 6.352-11.757 10.223-3.947 18.799-7.061 24.611-5.745 5.812 1.315 7.213 4.581 8.283 8.661.066.009-7.043 6.465-25.776 7.573Z"/><path fill="#B16668" d="M102.767 262.659c.246-2.575-2.367-3.862-3.692-5.159-2.054-2.007-2.982-5.386-3.303-8.037-.398-3.313-1.089-5.623.52-8.86 1.893-3.834 4.648-8.387 14.332-19.878l-15.212-5.604c-2.244 4.941-7.45 15.145-7.45 15.145l-.483.9c-1.126 1.836-1.713 3.227-3.587 4.912l-.7.493c-1.174 1.069-4.327 2.451-3.863 5.603.464 3.153 1.76 3.787 3.484 6.21a9.712 9.712 0 0 1 2.319 5.462c.388 2.537.36 3.654.625 5.945.227 1.893 2.31 4.486 6.048 5.291 5.453 1.155 10.716.114 10.962-2.423Z"/><path fill="#263238" d="M77.483 242.506a36.475 36.475 0 0 0-3.029 7.449l4.27 4.733 2.356-5.622a19.534 19.534 0 0 1-3.597-6.56Z"/><path fill="#000" d="m78.733 254.688 4.894-.946a4.524 4.524 0 0 0-.89-3.086 6.24 6.24 0 0 0-1.666-1.562l-2.338 5.594Z"/><path fill="#263238" d="M78.326 241.199c-.348.338-.627.74-.824 1.184a9.695 9.695 0 0 0 1.752 5.225c1.23 1.448 3.123 2.906 3.786 5.102.662 2.196.218 5.755 1.495 8.794 1.278 3.038 4.667 6.247 11.18 6.285 4.657 0 6.266-1.079 7.677-2.262.284-2.102.161-2.632-2.556-4.033-2.717-1.401-22.51-20.295-22.51-20.295Z"/><path fill="#37474F" d="M85.813 231.828c-1.722 2.783-2.338 3.843-4.08 5.216a8.672 8.672 0 0 0-3.37 4.155c-.113 2.783.56 3.844 3.437 7.024a10.413 10.413 0 0 1 3.086 6.948c.454 3.966-.672 6.011 4.534 9.466 4.051 2.698 12.05 1.893 13.924-.568 1.155-5.679-3.54-4.648-5.395-10.242-1.032-3.095-2.026-6.532-1.468-9.816a11.155 11.155 0 0 1 1.099-3.2c.454-.946 1.893-3.038.832-3.994l-.577.994a7.783 7.783 0 0 1-5.784-1.089c-4.931-3.143-4.534-5.566-4.534-5.566l.483-.899c-.558-.492-1.24 0-2.187 1.571Z"/><path fill="#B16668" d="M147.919 290.801a15.005 15.005 0 0 1-3.937.615 23.855 23.855 0 0 1-3.834-.435 5.855 5.855 0 0 1-2.073-.767 16.797 16.797 0 0 1-4.601-3.54 19.077 19.077 0 0 1-2.234-3.361 14.502 14.502 0 0 0-2.139-2.962 8.073 8.073 0 0 0-1.628-1.373 21.141 21.141 0 0 0-2.442-.947 9.16 9.16 0 0 1-2.007-1.192 3.796 3.796 0 0 1-1.155-1.42 3.657 3.657 0 0 1-.36-1.77c.122-.997.384-1.972.777-2.897.3-.84.525-1.704.672-2.584.11-1.025.126-2.058.047-3.086.094-.865.142-1.734.142-2.603l-.18-1.174a148.684 148.684 0 0 0-2.745-14.653l15.089-7.393c.066 5.395 0 10.27.208 15.666 0 .947.085 3.663.076 5.869v1.155a38.825 38.825 0 0 0 .047 4.288c.261 1.549.625 3.08 1.089 4.581a29.743 29.743 0 0 0 4.023 6.996 21.804 21.804 0 0 0 4.259 3.994c.464.379 1.004.672 1.477 1.042.628.463 1.283.889 1.96 1.277.558.341 1.041.796 1.599 1.136.739.455 1.761.947 1.893 1.941a2.564 2.564 0 0 1-.681 1.969 6.817 6.817 0 0 1-3.342 1.628Z"/><path fill="#263238" d="M120.837 277.577s.644 4.033.947 6.626a14.47 14.47 0 0 0 3.142 2.13l1.43-6.399-5.519-2.357Z"/><path fill="#000" d="m124.908 286.324 5.395-1.553s-1.344-3.161-2.631-4.004a4.408 4.408 0 0 0-2.641-.691l-.123 6.248Z"/><path fill="#263238" d="M151.516 289.864c.247.7-.539 1.893-2.943 2.622-3.427 1.013-9.466.947-13.414-1.893a17.186 17.186 0 0 1-6.011-6.816c-.889-1.647-1.552-2.934-4.155-3.701-2.603-.767-3.484-1.609-4.193-2.499 0 0-.843-2.243.53-3.095 1.372-.852 30.186 15.382 30.186 15.382Z"/><path fill="#37474F" d="M120.714 276.46c1.666 1.732 3.531 2.253 5.85 2.916 3.276.946 4.222 7.118 8.709 10.052 6.096 3.986 13.451 2.84 16.244.426 1.107-2.092 1.079-3.682-1.733-5.547-4.326-2.839-7.743-6.143-9.229-8.519-1.893-3.058-2.395-4.847-3.086-8.349-.199-1.013-.36-2.48-.483-3.502-.18-1.647-.549-3.162-1.391-3.19v1.154c-1.127 1.042-4.847 1.676-6.522 1.676-2.102 0-4.733-.208-5.926-1.145l-.18-1.174c-1.278.246-.549 3.038-.587 3.881-.075 1.893.086 3.919-.795 5.679-.748 1.619-1.59 4.165-.871 5.642ZM108.371 166.655l9.523-15.751s14.198-9.4 19.31-15.6a60.59 60.59 0 0 1 4.828 30.215 80.376 80.376 0 0 1-13.877 37.107c-4.128 5.812-26.136 29.183-26.136 29.183-2.423-.132-9.58-4.789-10.734-8.169 0 0 4.401-9.835 7.061-14.928 3.484-6.626 4.402-9.759 11.501-15.713-1.173-6.409-1.476-26.344-1.476-26.344Z"/><path fill="#263238" d="m94.333 222.741-.52-.265.255-.492c6.257-12.013 12.22-23.182 28.01-28.067l.17.559c-15.553 4.808-21.459 15.865-27.66 27.782l-.255.483Z"/><path fill="#263238" d="M105.086 197.543c.227-.256.464-.521.72-.786l.302-.312c.237-.256.493-.502.748-.758l.369-.35.871-.814.369-.331c.436-.388.89-.786 1.382-1.203a14.395 14.395 0 0 1-.132-.861 1.874 1.874 0 0 1 0-.237c0-.293-.085-.596-.123-.946a.194.194 0 0 0 0-.076c0-.36-.076-.738-.123-1.126a2.343 2.343 0 0 1 0-.265c0-.36-.076-.729-.104-1.117a.435.435 0 0 1 0-.114c0-.435-.076-.88-.114-1.344v-.218c0-.435-.066-.88-.095-1.335v-.075c0-.511-.066-1.023-.094-1.543l-.085-1.562 19.433-19.547s6.749-2.3 9.532-6.626c-1.505 4.893-6.862 7.686-6.862 7.686l3.398 28.114-.341.691c-.132.265-.265.53-.388.795l-.644 1.221-.312.606a28.837 28.837 0 0 1-.947 1.637l-.322.559c-.198.35-.407.691-.605 1.022l-.351.587-.549.871-.331.521-.549.842c-.085.123-.18.256-.256.379-.265.378-.511.748-.747 1.079-2.225 3.133-9.627 11.359-15.998 18.269-.426-3.048-.757-7.497.152-11.151l-7.374-12.021.17-.161Z"/><path fill="#37474F" d="M105.02 183.457c-3.124-8.775-5.093-14.331-6.181-20.475-1.553-8.756-.105-13.763 1.107-16.527 3.644-8.33 5.68-11.066 7.005-13.943 0 0 2.754 5.736 15.212 6.787 14.246 1.211 15.931-3.995 15.931-3.995-.464 5.244 1.088 11.965-.54 16.348-3.285 8.794-9.153 10.971-9.153 10.971l4.051 24.535c1.552 12.865 3.029 15.146 3.124 40.411 0 11.113.085 28.729.085 28.729-1.713 1.079-9.882 2.3-12.912 1.031 0 0-3.029-11.406-4.808-19.007-3.417-14.54-3.872-18.279-2.84-25.246.057-.038-6.494-19.566-10.081-29.619Z"/><path fill="#263238" d="M125.353 257.831c-1.411-6.796-4.232-20.607-5.453-27.905a49.112 49.112 0 0 1-.672-13.329c.124-1.258.165-2.522.123-3.786-.217-4.231-4.089-17.909-7.383-27.745-2.925-8.68-5.935-17.644-6.797-22.898h.294a5.13 5.13 0 0 0 3.237-1.164c2.925-2.3 4.922-7.904 5.926-16.651l-.578-.066c-.946 8.472-2.953 14.095-5.679 16.263a4.585 4.585 0 0 1-3.266 1.013c-1.212-8.359.947-14.341 2.84-19.633.53-1.467 1.022-2.84 1.448-4.25l-.568-.17c-.407 1.382-.946 2.764-1.429 4.221-1.95 5.405-4.156 11.53-2.84 20.144.795 5.253 3.891 14.454 6.882 23.362 3.142 9.362 7.137 23.428 7.355 27.593a29.4 29.4 0 0 1-.114 3.73 49.305 49.305 0 0 0 .672 13.47c1.212 7.251 4.004 20.9 5.424 27.754.171.019.369.028.578.047Z"/><path fill="#455A64" d="M122.428 257.869s2.423 1.193 7.412.615c4.988-.577 5.916-2.149 5.916-2.149v-7.326s-1.808 1.694-6.958 2.253c-5.395.596-7.885-.445-7.885-.445l1.515 7.052ZM89.657 226.915s0 3.02 4.26 5.746a9.646 9.646 0 0 0 6.455 1.572l4.26-4.989s-2.424.89-6.626-2.12a12.154 12.154 0 0 1-4.98-7.573l-3.37 7.364Z"/><path fill="#B16668" d="M130.521 99.324c4.733.558 7.648 1.59 10.696 6.172 3.048 4.581 8.52 12.533 13.253 19.736l14.397-4.733 4.932 8.576s-16.404 8.52-20.219 9.145c-3.815.624-4.515-.37-7.223-3.191-3.01-3.142-13.252-15.457-13.252-15.457l-2.584-20.248Z"/><path fill="#455A64" d="m184.354 105.496-.947-.852a1.098 1.098 0 0 0-.946-.152l-10.413 2.386a3.787 3.787 0 0 0-2.395 2.063l-8.245 21.034a.95.95 0 0 0 .095 1.098l.947.88a1.063 1.063 0 0 0 .946.161l10.451-2.376a3.794 3.794 0 0 0 2.395-2.064l8.244-21.042a.946.946 0 0 0-.132-1.136Z"/><path fill="#263238" d="M171.878 108.288a3.787 3.787 0 0 0-1.25 1.572l-8.254 21.023a1.038 1.038 0 0 0 .066 1.08l-.89-.824a.949.949 0 0 1-.094-1.098l8.254-21.128a3.59 3.59 0 0 1 1.155-1.439l1.013.814Z"/><path fill="#37474F" d="m162.383 130.846 8.245-20.986a3.784 3.784 0 0 1 2.395-2.064l10.413-2.385c.946-.228 1.448.34 1.088 1.259l-8.245 21.042a3.788 3.788 0 0 1-2.432 2.026l-10.413 2.385c-.946.209-1.41-.359-1.051-1.277Z"/><path fill="#455A64" d="m170.458 114.28 1.495-3.928a.703.703 0 0 1 .455-.388l1.94-.445c.18 0 .275.057.209.236l-1.543 3.929a.701.701 0 0 1-.455.388l-1.94.445c-.133.075-.227-.057-.161-.237Z"/><path fill="#263238" d="M172.058 111.308a1.893 1.893 0 0 1 1.145-.947c.464-.104.71.152.54.568a1.762 1.762 0 0 1-1.136.947c-.464.104-.71-.123-.549-.568ZM171.31 113.296a1.751 1.751 0 0 1 1.136-.947c.463-.104.71.152.549.568a1.793 1.793 0 0 1-1.146.947c-.464.104-.71-.152-.539-.568Z"/><path fill="#B16668" d="M182.262 118.208c1.164-1.296 1.088-1.495.625-2.281a4.49 4.49 0 0 0-3.408-2.243 9.376 9.376 0 0 0-3.162 0c-.681.265-.284 1.666 1.297 2.205 2.48.852 2.386 1.534 2.386 1.534a31.391 31.391 0 0 0-3.219-.947c-1.264-.05-2.53.001-3.786.152-1.089.056-1.449 1.41.312 2.092l-1.997.094c-1.401.076-1.95.748-.947 1.723.323.329.746.542 1.202.606 0 0-1.467-.161-1.552.322-.237 1.382.625 1.893 3.493 3.038 2.868 1.146 3.152 2.708 2.471 3.701 0 0 1.211-.539 2.3-1.135.795-.426 1.495-.947 1.287-2.13 0 0 1.609.208 1.818-.776a5.182 5.182 0 0 0-.161-2.187 1.753 1.753 0 0 0 1.069-1.553 2.836 2.836 0 0 0-.388-1.817l.36-.398Z"/><path fill="#9A4A4D" d="M173.298 118.739a8.8 8.8 0 0 1 1.807 0 5.746 5.746 0 0 1 1.666.738 20.378 20.378 0 0 1 2.935 2.007 21.216 21.216 0 0 1-3.19-1.553 9.284 9.284 0 0 0-1.505-.795c-.53-.151-1.164-.227-1.713-.397ZM171.537 121.162a3.936 3.936 0 0 1 1.893.151c.616.204 1.211.464 1.78.776a18.972 18.972 0 0 1 3.161 2.168 35.772 35.772 0 0 1-3.417-1.704 9.965 9.965 0 0 0-3.417-1.391Z"/><path fill="#21C58E" d="M125.144 98.86s-15.59.54-18.648 1.108c-.681.123-3 .378-3 .378-1.307 1.799-2.935 7.81-3.039 14.493-.047 3.256 1.221 12.996 1.95 17.038.275 3.701-3.322 16.925-3.322 16.925 8.623 7.422 37.863 7.166 42.852-2.177 0 0-.862-16.433-.947-21.26a18.8 18.8 0 0 0 1.704-6.74c-.047-4.449-.871-6.077-4.629-11.264a44.695 44.695 0 0 0-7.525-8.075l-5.396-.426Z"/><path fill="#fff" d="M125.144 98.86s-15.59.54-18.648 1.108c-.681.123-3 .378-3 .378-1.307 1.799-2.935 7.81-3.039 14.493-.047 3.256 1.221 12.996 1.95 17.038.275 3.701-3.322 16.925-3.322 16.925 8.623 7.422 37.863 7.166 42.852-2.177 0 0-.862-16.433-.947-21.26a18.8 18.8 0 0 0 1.704-6.74c-.047-4.449-.871-6.077-4.629-11.264a44.695 44.695 0 0 0-7.525-8.075l-5.396-.426Z" opacity=".3"/><path fill="#263238" d="M137.545 65.739c-5.188-6.409-12.145-7.8-18.629-6.286-3.843.947-7.848 3.162-8.974 7.223a4.32 4.32 0 0 0-3.521 1.647 10.507 10.507 0 0 0-2.026 5.992c0 5.556 1.552 8.822 4.875 12.58 1.656 1.893 3.427 3.92 4.222 6.314.265.776-.085 1.174.946 1.145 1.032-.028 2.168-.833 3.058-1.24l3.711-1.723a29.181 29.181 0 0 0 6.787-4.07 12.561 12.561 0 0 0 2.044-1.76 7.92 7.92 0 0 0 .483-2.367c2.243-1.013 4.572-1.448 5.897-3.966a8.802 8.802 0 0 0 .606-6.096 4.306 4.306 0 0 1 1.571 3.322 9.867 9.867 0 0 0-1.05-10.715Z"/><path fill="#B16668" d="M113.123 96.72c0-1.343-.124-7.988-.124-7.988-.53.71-3.398 1.684-5.367-1.08-2.272-3.19-1.893-5.47-.34-6.995a3.918 3.918 0 0 1 6.285 1.458c2.111.473 3.048-2.755 1.41-5.822.104-3.928 4.146-3.786 6.134-8.84 5.083 2.621 9.769.482 13.025 4.287.672 1.893 1.203 4.894 1.259 10.223.086 8.7-1.599 10.782-3.956 11.861-1.401.635-3.134.824-5.822.625l.151 2.243c.057 1.127 0 1.61 1.061 1.97.738.236 2.215.548 2.215.548s3.19 2.982-3.787 3.976c-10.412 1.486-16.092-3.521-16.092-3.521s.71-.114 2.49-.445c1.779-.332 1.458-1.155 1.458-2.5Z"/><path fill="#FAFAFA" d="M109.743 87.245a1.052 1.052 0 0 0 1.82.678 1.052 1.052 0 1 0-1.82-.678Z"/><path fill="#9A4A4D" d="m122.911 86.337 3.786 1.173a1.884 1.884 0 0 1-1.658 1.457 1.895 1.895 0 0 1-.775-.084 2.074 2.074 0 0 1-1.353-2.546Z"/><path fill="#F28F8F" d="M123.157 87.207a2.167 2.167 0 0 1 2.186 1.676 1.89 1.89 0 0 1-1.088 0 2.049 2.049 0 0 1-1.392-1.638c.104-.01.199-.038.294-.038Z"/><path fill="#263238" d="m133.806 74.94-3.029-.303a1.46 1.46 0 0 1 .509-1.032 1.462 1.462 0 0 1 1.1-.34 1.6 1.6 0 0 1 1.42 1.675ZM119.493 75.252l3.01-.625a1.467 1.467 0 0 0-1.76-1.211 1.61 1.61 0 0 0-1.25 1.836ZM130.427 78.773a1.303 1.303 0 0 0 1.173 1.373 1.223 1.223 0 0 0 1.344-1.136 1.293 1.293 0 0 0-1.173-1.373 1.21 1.21 0 0 0-1.344 1.136ZM121.254 79.076a1.298 1.298 0 0 0 1.661 1.328 1.216 1.216 0 0 0 .857-1.091 1.289 1.289 0 0 0-1.174-1.363 1.212 1.212 0 0 0-1.344 1.126Z"/><path fill="#9A4A4D" d="m131.468 83.648-4.08 1.723-.568-8.803 4.648 7.08ZM125.627 94.449c-4.809-.445-9.466-1.978-10.535-4.165a4.344 4.344 0 0 0 1.959 3.483c2.755 1.59 8.68 2.339 8.68 2.339l-.104-1.657Z"/><path fill="#263238" d="M109.081 99.551s5.85 5.604 6.257 15.77c1.031 25.738-16.547 30.007-16.547 30.007s.19-3.114.464-6.436c0 0 11.577-9.466 11.085-22.624-.351-9.371-4.506-15.146-6.844-15.922 0 .048 2.385-.492 5.585-.795Z"/><path fill="#B16668" d="M94.077 145.451a17.243 17.243 0 0 0 6.787-3.786c4.856-3.976 5.14-4.591 9.192-8.122 1.363-1.192 2.603-2.385 3.18-2.925a15.28 15.28 0 0 0 3.077-3.029 9.549 9.549 0 0 0 1.76-3.55c.199-1.382.72-2.783.474-4.202-.076-.407-.209-.805-.265-1.221a9.436 9.436 0 0 1 0-1.714 8.158 8.158 0 0 0-.341-2.982 5.149 5.149 0 0 0-1.335-2.12 1.827 1.827 0 0 0-1.78-.644c.133.748.237 1.373.351 2.253a6.282 6.282 0 0 1-1.591 3.266c-1.524 1.969-2.839 2.982-3.01 2.584-.17-.397.398-1.637.218-3.663-.18-2.026-.729-2.745-1.335-2.906-.946-.256-.946.804-1.41 2.414-.511 1.893-1.344 2.953-1.477 5.793-.104 2.48.294 3.057-1.107 4.155-.795.625-3.512 2.111-3.512 2.111s.776-2.698 2.073-7.298c2.499-8.926 3.001-18.127-.521-19.5-4.373 1.032-8.718 3.55-11.028 10.829-2.46 7.734-2.527 8.898-5.092 24.29-1.846 11.179 2.896 11.056 6.692 9.967Z"/><path fill="#9A4A4D" d="M101.972 127.144c-3.19 2.319-10.157 5.68-11.085 9.409 0 0 .142-2.981 4.364-6.531a56.319 56.319 0 0 1 7.431-5.377l-.71 2.499Z"/><path fill="#000" d="m170.865 246.169 143.523 82.903a5.838 5.838 0 0 0 5.282 0l44.319-25.558c1.458-.843 1.458-2.206 0-3.058l-143.522-82.855a5.832 5.832 0 0 0-5.282 0l-44.32 25.558c-1.458.842-1.458 2.205 0 3.01Z" opacity=".15"/><path fill="#37474F" d="M248.826 243.661a3.153 3.153 0 0 0 1.6-.426l34.626-19.992a12.313 12.313 0 0 0 6.172-10.631v-39.984a3.217 3.217 0 0 0-1.942-3.131 3.21 3.21 0 0 0-2.543 0 3.217 3.217 0 0 0-1.942 3.131v39.984a5.878 5.878 0 0 1-2.925 5.065l-34.655 19.973a3.209 3.209 0 0 0 1.609 5.992v.019ZM319.509 283.569a3.215 3.215 0 0 0 1.609-.435l34.626-19.992a12.305 12.305 0 0 0 6.134-10.621v-39.984a3.214 3.214 0 0 0-1.942-3.131 3.215 3.215 0 0 0-3.608.743 3.217 3.217 0 0 0-.877 2.388v39.984a5.838 5.838 0 0 1-2.925 5.055l-34.627 20.001a3.213 3.213 0 0 0-1.501 3.615 3.204 3.204 0 0 0 3.111 2.377ZM180.568 203.459c.562 0 1.114-.15 1.599-.436l34.627-19.992a12.297 12.297 0 0 0 4.486-4.496 12.3 12.3 0 0 0 1.648-6.134v-39.984a3.209 3.209 0 0 0-6.418 0v39.984a5.88 5.88 0 0 1-2.925 5.064l-34.627 19.992a3.22 3.22 0 0 0 1.61 6.002Z"/><path fill="#37474F" d="M313.517 279.584v44.386a1.808 1.808 0 0 0 1.069 1.486 5.678 5.678 0 0 0 5.169 0 1.795 1.795 0 0 0 1.06-1.486v-44.386h-7.298ZM344.063 262.185v44.386a1.788 1.788 0 0 0 1.07 1.486 5.67 5.67 0 0 0 5.159 0 1.811 1.811 0 0 0 1.07-1.486v-44.386h-7.299ZM174.699 199.436v44.376a1.784 1.784 0 0 0 1.069 1.486 5.685 5.685 0 0 0 5.159 0 1.805 1.805 0 0 0 1.07-1.486v-44.376h-7.298ZM205.236 182.037v44.377a1.835 1.835 0 0 0 1.069 1.495 5.75 5.75 0 0 0 5.159 0 1.833 1.833 0 0 0 1.07-1.495v-44.377h-7.298Z"/><path fill="#21C58E" d="m369.034 221.605.644-.369a4.092 4.092 0 0 0 1.893-3.209v-5.765a4.12 4.12 0 0 0-1.893-3.218l-152.619-88.109a4.071 4.071 0 0 0-3.711 0l-.644.369a4.09 4.09 0 0 0-1.893 3.209v5.765a4.133 4.133 0 0 0 1.893 3.218l152.62 88.109a4.07 4.07 0 0 0 3.71 0Z"/><path fill="#fff" d="m369.034 221.605.644-.369a4.092 4.092 0 0 0 1.893-3.209v-5.765a4.12 4.12 0 0 0-1.893-3.218l-152.619-88.109a4.071 4.071 0 0 0-3.711 0l-.644.369a4.09 4.09 0 0 0-1.893 3.209v5.765a4.133 4.133 0 0 0 1.893 3.218l152.62 88.109a4.07 4.07 0 0 0 3.71 0Z" opacity=".6"/><path fill="#21C58E" d="m362.834 215.14 8.15-4.733c.34.551.529 1.18.549 1.827v5.764a4.08 4.08 0 0 1-1.893 3.209l-.643.37a4.076 4.076 0 0 1-3.711 0l-2.49-1.439.038-4.998Z"/><path fill="#fff" d="m362.834 215.14 8.15-4.733c.34.551.529 1.18.549 1.827v5.764a4.08 4.08 0 0 1-1.893 3.209l-.643.37a4.076 4.076 0 0 1-3.711 0l-2.49-1.439.038-4.998Z" opacity=".3"/><path fill="#21C58E" d="m365.324 211.562-152.667-88.119c-1.022-.587-1.893-.113-1.893 1.07v5.765a4.12 4.12 0 0 0 1.893 3.218l152.667 88.109c1.022.596 1.893.114 1.893-1.07v-5.764a4.093 4.093 0 0 0-1.893-3.209Z"/><path fill="#fff" d="m365.324 211.562-152.667-88.119c-1.022-.587-1.893-.113-1.893 1.07v5.765a4.12 4.12 0 0 0 1.893 3.218l152.667 88.109c1.022.596 1.893.114 1.893-1.07v-5.764a4.093 4.093 0 0 0-1.893-3.209Z" opacity=".5"/><path fill="#21C58E" d="m369.034 239.231.644-.37a4.12 4.12 0 0 0 1.893-3.218v-5.765a4.092 4.092 0 0 0-1.893-3.209l-152.619-88.118a4.125 4.125 0 0 0-3.711 0l-.644.369a4.133 4.133 0 0 0-1.893 3.218v5.765a4.093 4.093 0 0 0 1.893 3.209l152.62 88.119a4.133 4.133 0 0 0 3.71 0Z"/><path fill="#fff" d="m369.034 239.231.644-.37a4.12 4.12 0 0 0 1.893-3.218v-5.765a4.092 4.092 0 0 0-1.893-3.209l-152.619-88.118a4.125 4.125 0 0 0-3.711 0l-.644.369a4.133 4.133 0 0 0-1.893 3.218v5.765a4.093 4.093 0 0 0 1.893 3.209l152.62 88.119a4.133 4.133 0 0 0 3.71 0Z" opacity=".6"/><path fill="#21C58E" d="m362.834 232.765 8.15-4.733c.336.552.525 1.181.549 1.827v5.765a4.123 4.123 0 0 1-1.893 3.218l-.643.37a4.137 4.137 0 0 1-3.711 0l-2.49-1.449.038-4.998Z"/><path fill="#fff" d="m362.834 232.765 8.15-4.733c.336.552.525 1.181.549 1.827v5.765a4.123 4.123 0 0 1-1.893 3.218l-.643.37a4.137 4.137 0 0 1-3.711 0l-2.49-1.449.038-4.998Z" opacity=".3"/><path fill="#21C58E" d="m365.324 229.178-152.667-88.081c-1.022-.596-1.893-.113-1.893 1.07v5.765a4.093 4.093 0 0 0 1.893 3.209l152.667 88.09c1.022.586 1.893.104 1.893-1.08v-5.755a4.12 4.12 0 0 0-1.893-3.218Z"/><path fill="#fff" d="m365.324 229.178-152.667-88.081c-1.022-.596-1.893-.113-1.893 1.07v5.765a4.093 4.093 0 0 0 1.893 3.209l152.667 88.09c1.022.586 1.893.104 1.893-1.08v-5.755a4.12 4.12 0 0 0-1.893-3.218Z" opacity=".5"/><path fill="#21C58E" d="m369.034 256.847.644-.369a4.092 4.092 0 0 0 1.893-3.209v-5.765a4.12 4.12 0 0 0-1.893-3.219l-152.619-88.109a4.07 4.07 0 0 0-3.711 0l-.644.37a4.08 4.08 0 0 0-1.893 3.209v5.764a4.133 4.133 0 0 0 1.893 3.219l152.62 88.109a4.07 4.07 0 0 0 3.71 0Z"/><path fill="#fff" d="m369.034 256.847.644-.369a4.092 4.092 0 0 0 1.893-3.209v-5.765a4.12 4.12 0 0 0-1.893-3.219l-152.619-88.109a4.07 4.07 0 0 0-3.711 0l-.644.37a4.08 4.08 0 0 0-1.893 3.209v5.764a4.133 4.133 0 0 0 1.893 3.219l152.62 88.109a4.07 4.07 0 0 0 3.71 0Z" opacity=".6"/><path fill="#21C58E" d="m362.834 250.381 8.15-4.733c.34.551.529 1.181.549 1.827v5.765a4.08 4.08 0 0 1-1.893 3.209l-.643.369a4.077 4.077 0 0 1-3.711 0l-2.49-1.439.038-4.998Z"/><path fill="#fff" d="m362.834 250.381 8.15-4.733c.34.551.529 1.181.549 1.827v5.765a4.08 4.08 0 0 1-1.893 3.209l-.643.369a4.077 4.077 0 0 1-3.711 0l-2.49-1.439.038-4.998Z" opacity=".3"/><path fill="#21C58E" d="m365.324 246.803-152.667-88.118c-1.022-.587-1.893-.114-1.893 1.07v5.764a4.12 4.12 0 0 0 1.893 3.219l152.667 88.109c1.022.596 1.893.113 1.893-1.07v-5.765a4.093 4.093 0 0 0-1.893-3.209Z"/><path fill="#fff" d="m365.324 246.803-152.667-88.118c-1.022-.587-1.893-.114-1.893 1.07v5.764a4.12 4.12 0 0 0 1.893 3.219l152.667 88.109c1.022.596 1.893.113 1.893-1.07v-5.765a4.093 4.093 0 0 0-1.893-3.209Z" opacity=".5"/><path fill="#21C58E" d="M362.834 267.515v.738a4.12 4.12 0 0 1-1.893 3.219l-4.998 2.839a4.07 4.07 0 0 1-3.711 0l-152.609-88.109a4.092 4.092 0 0 1-1.894-3.218v-.738a4.088 4.088 0 0 1 1.846-3.209l4.998-2.887a4.125 4.125 0 0 1 3.711 0l152.695 88.156a4.083 4.083 0 0 1 1.855 3.209Z"/><path fill="#fff" d="M362.834 267.515v.738a4.12 4.12 0 0 1-1.893 3.219l-4.998 2.839a4.07 4.07 0 0 1-3.711 0l-152.609-88.109a4.092 4.092 0 0 1-1.894-3.218v-.738a4.088 4.088 0 0 1 1.846-3.209l4.998-2.887a4.125 4.125 0 0 1 3.711 0l152.695 88.156a4.083 4.083 0 0 1 1.855 3.209Z" opacity=".5"/><path fill="#21C58E" d="M354.126 265.376v9.418a3.783 3.783 0 0 0 1.893-.445l4.998-2.84a4.12 4.12 0 0 0 1.893-3.218v-.738a4.093 4.093 0 0 0-1.893-3.209l-2.499-1.439-4.392 2.471Z"/><path fill="#fff" d="M354.126 265.376v9.418a3.783 3.783 0 0 0 1.893-.445l4.998-2.84a4.12 4.12 0 0 0 1.893-3.218v-.738a4.093 4.093 0 0 0-1.893-3.209l-2.499-1.439-4.392 2.471Z" opacity=".3"/><path fill="#21C58E" d="m352.27 269.323-152.619-88.109a1.127 1.127 0 0 1 0-2.139l4.998-2.888a4.133 4.133 0 0 1 3.71 0l152.62 88.119a1.127 1.127 0 0 1 0 2.139l-4.998 2.84a4.068 4.068 0 0 1-3.711.038Z"/><path fill="#fff" d="m352.27 269.323-152.619-88.109a1.127 1.127 0 0 1 0-2.139l4.998-2.888a4.133 4.133 0 0 1 3.71 0l152.62 88.119a1.127 1.127 0 0 1 0 2.139l-4.998 2.84a4.068 4.068 0 0 1-3.711.038Z" opacity=".6"/><path fill="#21C58E" d="M347.604 276.309v.738a4.123 4.123 0 0 1-1.894 3.218l-4.988 2.84a4.125 4.125 0 0 1-3.711 0L184.43 195.053a4.093 4.093 0 0 1-1.894-3.209v-.738a4.133 4.133 0 0 1 1.894-3.219l4.988-2.839a4.125 4.125 0 0 1 3.711 0l152.619 88.042a4.127 4.127 0 0 1 1.856 3.219Z"/><path fill="#fff" d="M347.604 276.309v.738a4.123 4.123 0 0 1-1.894 3.218l-4.988 2.84a4.125 4.125 0 0 1-3.711 0L184.43 195.053a4.093 4.093 0 0 1-1.894-3.209v-.738a4.133 4.133 0 0 1 1.894-3.219l4.988-2.839a4.125 4.125 0 0 1 3.711 0l152.619 88.042a4.127 4.127 0 0 1 1.856 3.219Z" opacity=".5"/><path fill="#21C58E" d="M338.904 274.169v9.419a3.787 3.787 0 0 0 1.894-.445l4.988-2.84a4.126 4.126 0 0 0 1.893-3.218v-.738a4.132 4.132 0 0 0-1.893-3.219l-2.499-1.439-4.383 2.48Z"/><path fill="#fff" d="M338.904 274.169v9.419a3.787 3.787 0 0 0 1.894-.445l4.988-2.84a4.126 4.126 0 0 0 1.893-3.218v-.738a4.132 4.132 0 0 0-1.893-3.219l-2.499-1.439-4.383 2.48Z" opacity=".3"/><path fill="#21C58E" d="M337.049 278.117 184.43 190.008a1.134 1.134 0 0 1-.768-1.075 1.135 1.135 0 0 1 .768-1.074l4.988-2.84a4.123 4.123 0 0 1 3.711 0l152.619 88.071a1.138 1.138 0 0 1 .556 1.735 1.142 1.142 0 0 1-.556.414l-4.988 2.84a4.066 4.066 0 0 1-3.711.038Z"/><path fill="#fff" d="M337.049 278.117 184.43 190.008a1.134 1.134 0 0 1-.768-1.075 1.135 1.135 0 0 1 .768-1.074l4.988-2.84a4.123 4.123 0 0 1 3.711 0l152.619 88.071a1.138 1.138 0 0 1 .556 1.735 1.142 1.142 0 0 1-.556.414l-4.988 2.84a4.066 4.066 0 0 1-3.711.038Z" opacity=".6"/><path fill="#21C58E" d="M332.373 285.103v.738a4.074 4.074 0 0 1-1.893 3.209l-4.989 2.887a4.123 4.123 0 0 1-3.711 0l-152.619-88.119a4.08 4.08 0 0 1-1.893-3.208v-.739a4.12 4.12 0 0 1 1.893-3.218l4.989-2.84a4.07 4.07 0 0 1 3.71 0l152.657 88.071a4.104 4.104 0 0 1 1.856 3.219Z"/><path fill="#fff" d="M332.373 285.103v.738a4.074 4.074 0 0 1-1.893 3.209l-4.989 2.887a4.123 4.123 0 0 1-3.711 0l-152.619-88.119a4.08 4.08 0 0 1-1.893-3.208v-.739a4.12 4.12 0 0 1 1.893-3.218l4.989-2.84a4.07 4.07 0 0 1 3.71 0l152.657 88.071a4.104 4.104 0 0 1 1.856 3.219Z" opacity=".5"/><path fill="#21C58E" d="M323.674 282.954v9.466a3.794 3.794 0 0 0 1.893-.445l4.988-2.887a4.077 4.077 0 0 0 1.894-3.209v-.739a4.101 4.101 0 0 0-1.894-3.218l-2.489-1.439-4.392 2.471Z"/><path fill="#fff" d="M323.674 282.954v9.466a3.794 3.794 0 0 0 1.893-.445l4.988-2.887a4.077 4.077 0 0 0 1.894-3.209v-.739a4.101 4.101 0 0 0-1.894-3.218l-2.489-1.439-4.392 2.471Z" opacity=".3"/><path fill="#21C58E" d="m321.818 286.873-152.619-88.034a1.125 1.125 0 0 1 0-2.139l4.988-2.84a4.076 4.076 0 0 1 3.711 0l152.619 88.024a1.138 1.138 0 0 1 .556 1.735 1.138 1.138 0 0 1-.556.414l-4.988 2.84a4.136 4.136 0 0 1-3.711 0Z"/><path fill="#21C58E" d="m321.818 286.873-152.619-88.034a1.125 1.125 0 0 1 0-2.139l4.988-2.84a4.076 4.076 0 0 1 3.711 0l152.619 88.024a1.138 1.138 0 0 1 .556 1.735 1.138 1.138 0 0 1-.556.414l-4.988 2.84a4.136 4.136 0 0 1-3.711 0Z"/><path fill="#fff" d="m321.818 286.873-152.619-88.034a1.125 1.125 0 0 1 0-2.139l4.988-2.84a4.076 4.076 0 0 1 3.711 0l152.619 88.024a1.138 1.138 0 0 1 .556 1.735 1.138 1.138 0 0 1-.556.414l-4.988 2.84a4.136 4.136 0 0 1-3.711 0Z" opacity=".6"/><path fill="#37474F" d="M358.669 211.145a2.645 2.645 0 0 1 1.193 2.073c0 .757-.54 1.07-1.193.682a2.641 2.641 0 0 1-1.202-2.064c.019-.757.54-1.06 1.202-.691ZM358.669 228.742a2.655 2.655 0 0 1 1.193 2.064c0 .767-.54 1.07-1.193.691a2.648 2.648 0 0 1-1.202-2.073c.019-.757.54-1.07 1.202-.682ZM358.669 246.321a2.636 2.636 0 0 1 1.193 2.073c0 .757-.54 1.069-1.193.691a2.673 2.673 0 0 1-1.202-2.073c.019-.758.54-1.07 1.202-.691ZM219.719 131.082a2.636 2.636 0 0 1 1.192 2.073c0 .758-.53 1.07-1.192.691a2.63 2.63 0 0 1-1.193-2.073c0-.757.53-1.088 1.193-.691ZM219.719 148.67a2.627 2.627 0 0 1 1.192 2.063c0 .767-.53 1.07-1.192.692a2.63 2.63 0 0 1-1.193-2.064c0-.767.53-1.07 1.193-.691ZM219.719 166.248a2.645 2.645 0 0 1 1.192 2.073c0 .757-.53 1.07-1.192.691a2.639 2.639 0 0 1-1.193-2.073c0-.757.53-1.069 1.193-.691ZM348.758 260.832a.644.644 0 0 1 0 1.211 2.315 2.315 0 0 1-2.092 0c-.587-.34-.587-.88 0-1.211a2.296 2.296 0 0 1 2.092 0ZM333.49 269.692a.644.644 0 0 1 0 1.212 2.35 2.35 0 0 1-2.102 0 .65.65 0 0 1-.426-.606.648.648 0 0 1 .426-.606 2.354 2.354 0 0 1 2.102 0ZM318.221 278.552a.64.64 0 0 1 .426.606.64.64 0 0 1-.426.606 2.298 2.298 0 0 1-2.101 0 .64.64 0 0 1-.426-.606.642.642 0 0 1 .426-.606 2.35 2.35 0 0 1 2.101 0ZM209.931 180.722c.587.34.587.88 0 1.211a2.267 2.267 0 0 1-2.092 0 .633.633 0 0 1 0-1.211 2.318 2.318 0 0 1 2.092 0ZM194.672 189.591a.65.65 0 0 1 .426.606.642.642 0 0 1-.426.606 2.333 2.333 0 0 1-2.092 0c-.587-.341-.587-.881 0-1.212a2.29 2.29 0 0 1 2.092 0ZM179.394 198.451a.645.645 0 0 1 0 1.212 2.35 2.35 0 0 1-2.102 0 .65.65 0 0 1-.426-.606.645.645 0 0 1 .426-.606 2.354 2.354 0 0 1 2.102 0ZM287.978 171.294a2.618 2.618 0 0 1 1.192 2.063c0 .767-.53 1.07-1.192.691a2.646 2.646 0 0 1-1.193-2.063c0-.767.539-1.07 1.193-.691ZM287.978 188.872a2.636 2.636 0 0 1 1.192 2.073c0 .757-.53 1.069-1.192.691a2.643 2.643 0 0 1-1.193-2.073c0-.757.539-1.07 1.193-.691ZM287.978 206.46a2.632 2.632 0 0 1 1.192 2.073c0 .757-.53 1.069-1.192.681a2.646 2.646 0 0 1-1.193-2.063c0-.739.539-1.07 1.193-.691ZM278.19 220.933a.637.637 0 0 1 0 1.212 2.35 2.35 0 0 1-2.102 0 .645.645 0 0 1 0-1.212 2.277 2.277 0 0 1 2.102 0ZM262.921 229.793c.587.341.587.88 0 1.212a2.327 2.327 0 0 1-2.092 0c-.587-.332-.587-.871 0-1.212a2.333 2.333 0 0 1 2.092 0ZM247.681 238.663a.633.633 0 0 1 0 1.202 2.28 2.28 0 0 1-2.092 0c-.587-.332-.587-.871 0-1.202a2.293 2.293 0 0 1 2.092 0Z"/><path fill="#000" d="m270.759 167.005-.256-.265a30.52 30.52 0 0 0-3.133-2.925c-2.054-1.533-4.165-3.076-6.295-4.486-1.893-1.278-3.597-2.84-5.821-3.56a46.066 46.066 0 0 0-6.38-1.401l-18.591-10.724a48.594 48.594 0 0 1 13.384-1.894c3.134-.066 6.286-.094 9.466 0l81.549 47.084a.14.14 0 0 1 0 .076l-4.023 2.603s.142 1.893.142 2.773c0 2.461 0 4.923.048 7.384l-39.625-22.861v2.547l39.568 22.841c0 1.344 0 2.679-.047 4.023-.076 3.285-.123 7.024-.388 10.801l-39.133-22.595v2.546l38.924 22.482a40.685 40.685 0 0 1-2.745 12.059c-.164.378-.347.748-.549 1.108l-35.753-20.636a12.305 12.305 0 0 1-3.956 7.686l33.982 19.614a72.629 72.629 0 0 1-7.213 5.291 1067.96 1067.96 0 0 1-4.525 3.001l-35.023-20.191-2.178 1.249 35.128 20.267a85.835 85.835 0 0 1-10.762 5.973c-.947.417-1.827.843-2.755 1.287l-34.645-20.001-2.177 1.259 34.446 19.878c-3.256 1.572-6.541 3.19-9.636 4.478-.114 1.704-.123 3.332-.133 4.95l-30.65-17.691a33.113 33.113 0 0 1 4.477-12.846c2.433-4.136 6.011-7.856 9.911-11.501l.388.218 2.177-1.25-.89-.511c3.351-3.067 6.844-6.096 9.996-9.305l3.948 2.282.814-.474a5.884 5.884 0 0 0 2.925-5.064v-2.272l-1.998-1.155a26.094 26.094 0 0 0 5.121-13.934c.199-4.174-2.177-6.985-4.259-10.459-1.96-3.276-4.033-6.504-6.276-9.599-.767-1.06-1.553-2.13-2.357-3.19l9.769 5.68v-2.547l-13.991-8.103Zm-47.689-19.471a17.401 17.401 0 0 1 4.515-2.84l14.038 8.103c-1.42-.256-3.048-.549-4.269 0a28.949 28.949 0 0 0-2.641 1.694 13.356 13.356 0 0 1-3.219 1.42c-.936.24-1.846.573-2.716.994a5.099 5.099 0 0 1-1.543.54c-.947.085-.947-.473-.786-1.278.151-1.003 1.089-1.732 1.638-2.527.851-1.231.17-1.401-1.07-1.477a11.459 11.459 0 0 0-3.152.426c-2.196.53-4.222 1.647-6.371 2.347a3.616 3.616 0 0 1-1.022.218v-1.846l-.085-.047c2.016-2.158 4.553-3.777 6.683-5.727Z" opacity=".2"/><path fill="#FFA8A7" d="M254.014 274.226s5.736 11.198 6.37 15.751c.663 4.733 1.95 6.229 1.591 11.483-.076 1.145-.474 3.464-.54 4.392a1.37 1.37 0 0 0 .312 1.118 1.359 1.359 0 0 0 1.061.472c2.101.246 5.206-3.938 6.474-8.311a126.603 126.603 0 0 0 2.84-15.269 6.522 6.522 0 0 0-.947-3.284 10.75 10.75 0 0 0-1.098-1.647c-.861-2.017-1.533-5.935-2.347-8.614l-13.716 3.909Z"/><path fill="#37474F" d="M276.514 287.819c.314.463.548.975.691 1.515.133.946-1.742 4.269-2.489 5.49a7.627 7.627 0 0 0-1.089 5.547 13.248 13.248 0 0 1-2.452 8.765 21.014 21.014 0 0 1-9.816 7.715c-4.884 1.979-6.881-.388-6.881-.388s-1.761-2.291-.947-3.36c.814-1.07 22.983-25.284 22.983-25.284Z"/><path fill="#21C58E" d="M270.049 278.931c.151 0 .417-.086.852.359.161.161 1.278 2.348 2.139 3.465.862 1.117 3.039 3.171 3.474 5.064-.842 3.787-4.108 6.721-4.335 10.28-.227 3.559.113 7.705-4.96 12.438-5.074 4.733-10.545 5.68-12.637 4.733-2.092-.946-2.102-3.123.331-7.44 2.575-4.581 3.786-14.123 3.786-14.123.15-1.339.21-2.686.18-4.032a26.453 26.453 0 0 0-.71-3.91 2.935 2.935 0 0 1 .095-1.808 3.036 3.036 0 0 1 1.401-1.164c.85-.489 1.752-.883 2.688-1.174a4.454 4.454 0 0 1 2.897.095c.613.351 1.245.667 1.893.946a2.565 2.565 0 0 0 2.613-.7 2.21 2.21 0 0 0 .511-2.499l-.218-.53Z"/><path fill="#000" d="M270.049 278.931c.151 0 .417-.086.852.359.161.161 1.278 2.348 2.139 3.465.862 1.117 3.039 3.171 3.474 5.064-.842 3.787-4.108 6.721-4.335 10.28-.227 3.559.113 7.705-4.96 12.438-5.074 4.733-10.545 5.68-12.637 4.733-2.092-.946-2.102-3.123.331-7.44 2.575-4.581 3.786-14.123 3.786-14.123.15-1.339.21-2.686.18-4.032a26.453 26.453 0 0 0-.71-3.91 2.935 2.935 0 0 1 .095-1.808 3.036 3.036 0 0 1 1.401-1.164c.85-.489 1.752-.883 2.688-1.174a4.454 4.454 0 0 1 2.897.095c.613.351 1.245.667 1.893.946a2.565 2.565 0 0 0 2.613-.7 2.21 2.21 0 0 0 .511-2.499l-.218-.53Z" opacity=".4"/><path fill="#FAFAFA" d="M270.087 306.836a8.645 8.645 0 0 0-3.602-2.923 8.64 8.64 0 0 0-4.596-.636c-5.736.521-7.478 3.607-8.197 5.405-.861 2.13-1.628 5.935.833 6.787 2.66.947 5.594.322 10.053-2.414 4.458-2.735 5.509-6.219 5.509-6.219ZM267.56 289.646a.611.611 0 0 1-.531 0c-.946-.369-5.679-.946-8.206 1.818-.379-.247-.36-.777 0-1.543 3.019-2.31 7.572-1.789 8.651-1.335a.555.555 0 0 1 .344.531.56.56 0 0 1-.05.217.697.697 0 0 1-.208.312ZM258.51 294.9a1.781 1.781 0 0 1 .189-1.609 10.85 10.85 0 0 1 8.283-1.051.575.575 0 0 1 .3.314.58.58 0 0 1 .036.218.576.576 0 0 1-.052.216.64.64 0 0 1-.246.274.602.602 0 0 1-.521 0c-.899-.322-5.433-.861-7.989 1.638ZM256.835 302.851a3.261 3.261 0 0 1 .558-2.139c3.02-2.196 7.431-1.676 8.519-1.231a.543.543 0 0 1 .305.307.535.535 0 0 1-.011.432.613.613 0 0 1-.776.321c-.966-.416-6.229-1.012-8.595 2.31ZM266.49 296.878a.566.566 0 0 1-.521 0c-.947-.369-5.594-.947-8.122 1.732a1.996 1.996 0 0 1 .332-1.732 10.743 10.743 0 0 1 8.273-1.051.573.573 0 0 1 .311.507.565.565 0 0 1-.311.506l.038.038Z"/><path fill="#FFA8A7" d="M250.436 289.457s-1.799 14.293-4.194 19.878c-2.395 5.585-3.635 8.321-7.08 12.628-.748.946-2.471 2.698-3.086 3.455-.146.15-.257.33-.326.528a1.431 1.431 0 0 0 .131 1.203c.109.179.257.331.431.446 1.666 1.477 8.472 1.571 12.174-1.439 3.701-3.01 6.929-9.22 9.106-11.605a37.898 37.898 0 0 0 2.31-2.783c.719-.965.473-1.78.492-2.792 0-.493-.104-1.827-.104-1.827.426-2.414 1.685-6.219 2.338-8.576l-12.192-9.116Z"/><path fill="#37474F" d="M262.05 317.845a5.233 5.233 0 0 1-.104 1.742c-.341.947-3.71 3.086-4.988 3.843a8.034 8.034 0 0 0-3.73 4.61 13.813 13.813 0 0 1-6.569 6.891 21.912 21.912 0 0 1-12.855 2.319c-5.49-.568-6.162-3.729-6.162-3.729s-.512-2.991.795-3.559c1.306-.568 33.613-12.117 33.613-12.117Z"/><path fill="#21C58E" d="M260.45 306.429c.152.057.426.123.616.748.066.227 0 2.793.274 4.25.275 1.458 1.259 4.459.71 6.418-2.65 3.124-7.09 4.203-9.049 7.384-1.96 3.18-3.682 7.109-10.668 9.049-6.986 1.941-12.552.085-14.01-1.836-1.458-1.922-.407-3.91 3.957-6.712 4.629-2.963 10.412-11.207 10.412-11.207a34.276 34.276 0 0 0 2.14-3.645 26.958 26.958 0 0 0 1.259-3.966c.139-.625.47-1.191.946-1.619a3.171 3.171 0 0 1 1.893-.388 13.888 13.888 0 0 1 3.067.227 4.677 4.677 0 0 1 2.622 1.515c.474.577.739 1.306 1.259 1.836a2.709 2.709 0 0 0 2.764.635 2.31 2.31 0 0 0 1.695-2.064c.05-.206.087-.414.113-.625Z"/><path fill="#000" d="M260.45 306.429c.152.057.426.123.616.748.066.227 0 2.793.274 4.25.275 1.458 1.259 4.459.71 6.418-2.65 3.124-7.09 4.203-9.049 7.384-1.96 3.18-3.682 7.109-10.668 9.049-6.986 1.941-12.552.085-14.01-1.836-1.458-1.922-.407-3.91 3.957-6.712 4.629-2.963 10.412-11.207 10.412-11.207a34.276 34.276 0 0 0 2.14-3.645 26.958 26.958 0 0 0 1.259-3.966c.139-.625.47-1.191.946-1.619a3.171 3.171 0 0 1 1.893-.388 13.888 13.888 0 0 1 3.067.227 4.677 4.677 0 0 1 2.622 1.515c.474.577.739 1.306 1.259 1.836a2.709 2.709 0 0 0 2.764.635 2.31 2.31 0 0 0 1.695-2.064c.05-.206.087-.414.113-.625Z" opacity=".4"/><path fill="#FAFAFA" d="M246.801 332.233a9.044 9.044 0 0 0-5.831-7.307c-5.557-2.338-8.681-.332-10.224.946-1.893 1.553-4.42 4.686-2.565 6.693 2.007 2.158 5.008 3.029 10.479 2.688 5.471-.341 8.141-3.02 8.141-3.02ZM252.887 315.1a.625.625 0 0 1-.511-.218c-.672-.804-4.799-3.672-8.519-2.347-.227-.417.056-.89.795-1.411 3.928-.653 7.847 2.045 8.652 3.011a.588.588 0 0 1 .132.436.582.582 0 0 1-.227.397.651.651 0 0 1-.322.132ZM241.954 315.526a1.903 1.903 0 0 1 .947-1.392 11.298 11.298 0 0 1 8.169 3.086.59.59 0 0 1 .049.659.58.58 0 0 1-.153.174.645.645 0 0 1-.637.084.614.614 0 0 1-.225-.169c-.634-.804-4.553-3.502-8.15-2.442ZM236.511 322.058a3.33 3.33 0 0 1 1.562-1.704c3.862-.549 7.696 2.092 8.519 3.038a.576.576 0 0 1-.094.833.68.68 0 0 1-.37.133.61.61 0 0 1-.501-.218c-.786-.842-5.301-3.995-9.116-2.082ZM248.363 321.272a.611.611 0 0 1-.502-.218c-.663-.795-4.733-3.606-8.359-2.385a2.103 2.103 0 0 1 1.155-1.449 11.26 11.26 0 0 1 8.169 3.086.582.582 0 0 1 .124.439.597.597 0 0 1-.228.394.628.628 0 0 1-.359.133Z"/><path fill="#455A64" d="M275.908 205.409c-5.679 4.449-22.216 17.663-30.215 25.558-2.31 2.272-5.093 4.581-3.786 12.003 1.448 8.519 10.28 37.049 10.28 37.049l48.749-62.475-25.028-12.135Z"/><path fill="#37474F" d="M253.266 270.847c7.241-6.437 30.102-45.058 30.102-45.058l-1.013-.18c-5.462-2.575-7.119-9.324-7.119-9.324-.738 3.039 1.023 7.194 2.84 9.561-1.836 1.694-10.857 9.825-18.099 15.921a10.645 10.645 0 0 0-4.203 6.787c-1.306 8.084-2.735 20.674-2.508 22.293Z"/><path fill="#455A64" d="m278.568 207.359 43.099 6.484c-1.43 11.7-3.474 14.738-5.169 17.256-2.527 3.787-6.153 7.791-16.612 13.66-10.64 5.973-20.059 11.567-22.548 12.864-1.893.946-2.84 5.064-3.493 10.034-.701 5.225-.672 8.519-5.377 19.632-4.6 10.848-6.191 13.385-6.191 13.385s-7.733 1.117-13.072-3.218c0 0 5.594-36.804 6.834-43.44.701-3.701.635-5.679 5.036-9.854 3.787-3.616 21.28-18.581 21.28-18.581s-7.866-7.952-3.787-18.222Z"/><path fill="#F28F8F" d="M216.869 150.061a22.657 22.657 0 0 0 2.935-1.429c.502-.303.946-.625 1.505-.947a13.12 13.12 0 0 1 3.786-1.296c.201-.038.406-.038.606 0a.537.537 0 0 1 .445.378c.066.265-.142.521-.341.71-.506.461-1.037.894-1.59 1.297a4.018 4.018 0 0 0-1.354 1.287 2.393 2.393 0 0 0-.217 1.894.499.499 0 0 0 .284.35.594.594 0 0 0 .359 0c.888-.33 1.747-.736 2.566-1.212.946-.502 2.044-.842 3.038-1.297a13.55 13.55 0 0 0 2.906-1.448 22.148 22.148 0 0 0 1.685-1.571c1.893-1.647 2.67-.947 7.1-.53 3.029.293 13.915 2.678 16.347 3.19 0 0 22.463 13.792 23.031 17.9.568 4.108 11.435-17.607 11.435-17.607-7.317-2.792-21.232-8.519-26.183-10.573-4.951-2.054-5.159-2.452-10.782-2.916a123.508 123.508 0 0 0-25.151.473c-.35.048-1.893.237-2.215.294-4.288.738-7.345 1.77-10.668 4.648-.634.549-1.287 1.088-1.003 2.044a3.11 3.11 0 0 0-1.136.994 1.647 1.647 0 0 0-.208 1.448c0-.066-.635.455-.682.512-.188.24-.324.517-.398.814-.151.568.19 1.211-.425 1.533a6.836 6.836 0 0 0-.625.379 1.483 1.483 0 0 0-.417.388.638.638 0 0 0-.085.549c.034.07.075.137.123.199.947 1.145 2.707.558 3.853.094l1.476-.549Z"/><path fill="#455A64" d="M290.353 149.134c-5.111-2.319-19.878-7.942-19.878-7.942s-1.742 1.817-3.644 7.573a16.289 16.289 0 0 0-.625 7.052s7.099 4.941 9.627 7.355c2.527 2.414 4.733 5.215 5.272 7.194a19.024 19.024 0 0 0 9.248-21.232Z"/><path fill="#FAFAFA" d="M302.83 151.879c6.266 1.751 10.905 2.253 18.439 7.014 1.789 1.751 4.023 5.973 4.08 13.792.25 9.596-.19 19.197-1.316 28.729-.946 9.75-3.029 19.879-3.029 19.879-15.145 4.856-41.943-4.989-46.657-14.976 2.679-3.985 4.108-7.468 5.679-32.704.777-12.609 5.093-21.772 10.328-24.498 2.025.502 6.2 1.003 12.476 2.764Z"/><path fill="#455A64" d="M257.999 160.853a.407.407 0 0 1 .369 0l12.599 5.575c.396.203.707.538.881.947l9.21 24.857c.076.199.057.332 0 .398l-1.514 1.107a.414.414 0 0 1-.185.045.414.414 0 0 1-.185-.045l-12.589-5.575a1.895 1.895 0 0 1-.89-.947l-9.21-24.857c-.067-.199-.048-.332 0-.398.047-.066 1.438-1.041 1.514-1.107Z"/><path fill="#37474F" d="M269.964 167.943c.162.162.291.355.379.568l9.2 24.857c.067.18.057.312 0 .388l1.506-1.098c.085-.066.104-.199 0-.397l-9.211-24.858a1.806 1.806 0 0 0-.369-.568l-1.505 1.108Z"/><path fill="#263238" d="m279.146 193.737-12.59-5.575a1.895 1.895 0 0 1-.89-.947l-9.21-24.857c-.133-.37 0-.53.407-.379l12.59 5.623c.395.206.709.539.89.946l9.2 24.858c.133.322-.047.492-.397.331Z"/><path fill="#37474F" d="m270.314 172.571-.946-2.536a2.212 2.212 0 0 0-1.013-1.08l-.493-.217c-.643-.284-.946 0-.728.681l.946 2.528c.203.471.565.856 1.023 1.088l.482.218c.653.284.975.028.729-.682Z"/><path fill="#455A64" d="M269.803 172.259a2.048 2.048 0 0 0-.946-.947c-.398-.17-.606 0-.464.351.198.414.532.748.946.946.398.18.606.019.464-.35Z"/><path fill="#fff" d="M269.453 172.098a1.022 1.022 0 0 0-.492-.502c-.199-.094-.313 0-.237.18.094.225.27.404.492.502.237.057.313.057.237-.18Z" opacity=".2"/><path fill="#455A64" d="M269.093 170.385a2.008 2.008 0 0 0-.947-.994c-.397-.18-.605 0-.463.35.191.431.526.782.946.994.388.17.606.019.464-.35Z"/><path fill="#fff" d="M268.743 170.224a1.014 1.014 0 0 0-.492-.502c-.199-.094-.313 0-.237.18a.95.95 0 0 0 .492.502c.199.094.313.038.237-.18Z" opacity=".2"/><path fill="#263238" d="m271.763 170.271.198-.142a.213.213 0 0 1 .104-.028c.037 0 .073.01.105.028l.246.104a.23.23 0 0 1 .113.133l.833 2.253a.364.364 0 0 1-.132.426l-.199.151a.208.208 0 0 1-.208 0l-.246-.104a.209.209 0 0 1-.07-.055.22.22 0 0 1-.044-.077l-.833-2.253a.386.386 0 0 1 .133-.436Z"/><path fill="#455A64" d="m272.709 173.064-.842-2.253a.408.408 0 0 1 .132-.426l.199-.152a.21.21 0 0 1 .092-.042.207.207 0 0 1 .102.005.216.216 0 0 1 .137.141l.833 2.253a.367.367 0 0 1-.132.426l-.199.152a.193.193 0 0 1-.09.043.189.189 0 0 1-.1-.006.2.2 0 0 1-.132-.141Z"/><path fill="#263238" d="m273.135 173.972.199-.142a.223.223 0 0 1 .208 0l.246.114c.051.026.091.07.114.123l.833 2.262a.374.374 0 0 1 .005.236.362.362 0 0 1-.138.19l-.199.152a.208.208 0 0 1-.208 0l-.246-.104a.259.259 0 0 1-.113-.133l-.833-2.253a.391.391 0 0 1 .132-.445Z"/><path fill="#455A64" d="m274.082 176.765-.843-2.253a.402.402 0 0 1 .133-.426l.199-.151a.205.205 0 0 1 .19-.041.213.213 0 0 1 .141.135l.833 2.263a.37.37 0 0 1-.133.426l-.199.151a.195.195 0 0 1-.189.038.2.2 0 0 1-.132-.142Z"/><path fill="#FFA8A7" d="m275.038 176.008-.426-1.165c-.076-1.893 1.325-2.698 2.224-.568.701 1.695 3.578 4.497 4.269 6.626.691 2.13.606 4.289 3.105 6.627 2.66 2.499 20.825 8.424 20.825 8.424l7.658-20.276s2.783-12.911 8.519-16.168c5.311 2.679 6.295 6.305 7.034 10.101.946 4.903-.104 10.564-4.042 20.399-3.787 9.371-6.352 15.382-8.52 18.667-2.66 4.079-5.679 4.922-13.451 1.893-7.771-3.029-15.145-8.813-23.324-14-3.928-2.49-6.522-3.787-9.466-6.456a14.338 14.338 0 0 1-2.953-3.417 8.452 8.452 0 0 1-1.354-3.881 2.486 2.486 0 0 0-.094-.748 5.053 5.053 0 0 0-.322-.682 4.965 4.965 0 0 1-.578-1.297 8.146 8.146 0 0 1 0-1.514c.015-.23.015-.461 0-.691a3.602 3.602 0 0 0-.17-.701 5.192 5.192 0 0 1-.426-1.836.942.942 0 0 1 .483-.824s-.369-.719-.483-.946a5.604 5.604 0 0 1-.36-1.108.566.566 0 0 1 0-.445.507.507 0 0 1 .227-.132c1.364-.473 2.471.492 3.351 1.401 2.301 2.366 3.247 4.326 5.813 6.437 3.53 2.915 4.221 1.107 4.221 1.107l-1.76-4.827Z"/><path fill="#F28F8F" d="M305.083 196a19.996 19.996 0 0 1 5.443 2.839 10.126 10.126 0 0 0-4.961-4.136l-.482 1.297ZM264.019 174.758c.351.748.767 1.458 1.184 2.168.416.71.861 1.401 1.277 2.101.218.35.417.71.654 1.06.236.351.473.672.728.994a30.61 30.61 0 0 0 1.61 1.893l-.71-1.003-.71-1.003c-.227-.341-.464-.682-.682-1.023-.217-.34-.407-.7-.625-1.06-.425-.7-.88-1.391-1.344-2.073l-1.382-2.054ZM264.086 177.863c.162.613.384 1.209.662 1.779.275.578.568 1.136.881 1.695.312.558.643 1.088.946 1.619.352.526.735 1.032 1.146 1.514-.322-.549-.625-1.098-.947-1.647l-.947-1.638-.946-1.647c-.218-.577-.53-1.098-.795-1.675Z"/><path fill="#455A64" d="M321.269 158.893c2.916 1.685 7.043 4.951 7.724 12.808.682 7.856-6.332 22.718-6.332 22.718s-10.252-1.297-15.193-6.437c0 0 3.114-9.258 5.055-15.382 1.94-6.125 5.263-12.363 8.746-13.707Z"/><path fill="#263238" d="M286.113 129.284a6.834 6.834 0 0 1-2.622-3.342 10.715 10.715 0 0 1-.635-4.733 5.04 5.04 0 0 1 .445-1.628 2.343 2.343 0 0 1 1.818-.88l1.306-.171a8.57 8.57 0 0 1-1.978-2.839 4.464 4.464 0 0 1-.133-2.566c.041-.23.142-.446.294-.624a1.446 1.446 0 0 1 1.476-.19 28.823 28.823 0 0 0 9.362.776c2.49-.132 3.73-.426 7.147-.728 3.417-.303 9.466 1.287 10.526 7.733 4.572.776 5.131 8.16 3.786 11.265-2.442 5.727-4.732 9.466-5.991 13.631-.237-.171-15.525-9.107-19.027-11.615l-3.938-2.84c-.615-.388-1.249-.795-1.836-1.249Z"/><path fill="#FFA8A7" d="M315.4 140.813c-2.735 2.026-4.496.076-4.496.076v13.905c-5.68 7.327-20.749 6.134-14.199-1.268l-.132-3.332c-1.394.071-2.792.01-4.175-.18a7.086 7.086 0 0 1-2.423-.947 7.472 7.472 0 0 1-3.323-4.467 36.508 36.508 0 0 1-1.268-9.968c0-4.042.397-9.258 1.732-11.965 2.414-2.139 9.618-2.338 15.666-.606.114 1.515 0 2.84 1.165 4.496a6.475 6.475 0 0 0 2.319 1.818c.151 2.934.274 3.73.823 5.026.294.748.9 1.894 2.395 1.326.701-.256 1.221-1.818 1.95-2.84.947-1.392 4.061-2.045 5.557.946a6.628 6.628 0 0 1-1.591 7.98Z"/><path fill="#F28F8F" d="M296.592 150.194c3.057-.303 8.519-1.458 10.081-3.323 1.562-1.864 2.84-6.181 2.84-6.181s-.606 4.847-1.799 6.948c-1.193 2.102-3.843 2.944-5.765 3.54a33.001 33.001 0 0 1-5.244.871l-.113-1.855Z"/><path fill="#263238" d="m298.655 129.577 2.925 1.269a1.665 1.665 0 0 0-.852-2.149 1.566 1.566 0 0 0-1.224-.001 1.562 1.562 0 0 0-.849.881ZM290.193 129.416l-2.84 1.486a1.662 1.662 0 0 1 .691-2.205 1.545 1.545 0 0 1 1.23-.106 1.54 1.54 0 0 1 .919.825Z"/><path fill="#B16668" d="m299.611 140.094-5.301 2.035a2.98 2.98 0 0 0 3.787 1.666 2.787 2.787 0 0 0 1.514-3.701Z"/><path fill="#F28F8F" d="M299.441 141.201a2.768 2.768 0 0 0-2.764 2.736c.471.071.953.022 1.401-.142a2.741 2.741 0 0 0 1.751-2.556 2.655 2.655 0 0 0-.388-.038ZM295.266 129.889l-.956 9.561-4.951-2.082 5.907-7.479Z"/><path fill="#263238" d="M300.444 133.07a1.29 1.29 0 0 1-1.278 1.325 1.306 1.306 0 1 1 1.278-1.325ZM290.77 132.796a1.309 1.309 0 0 1-1.302 1.195 1.307 1.307 0 1 1 1.302-1.195Z"/></svg>